<svg width="137" height="147" viewBox="0 0 137 147" fill="none" xmlns="http://www.w3.org/2000/svg">
<g opacity="0.1">
<path d="M103.932 91.5222C106.248 94.2636 104.46 96.6906 102.387 98.3265C100.44 99.6944 98.4591 99.7349 96.461 99.1118L96.1935 98.9845C93.6942 99.434 92.448 97.202 91.2187 95.6335C90.2569 94.1924 88.777 93.1603 87.4224 91.8601C87.4224 91.8601 87.1548 91.7328 86.8873 91.6054C86.1016 91.8871 84.9062 91.646 84.2628 92.3231C84.6895 93.5096 85.509 94.5552 86.4539 95.3327C87.3987 96.1101 87.8254 97.2965 88.645 98.3422C89.197 99.2605 88.1946 101.406 87.033 102.492C85.1027 104.523 82.8541 104.437 80.3379 104.222C79.41 104.109 77.9639 104.404 77.1613 104.022C76.8938 103.895 76.3587 103.64 76.0912 103.513C74.5944 101.817 72.7047 100.262 71.4584 98.0299C71.1739 97.2389 70.6389 96.9842 70.0869 96.066C69.3926 94.7522 68.59 94.3702 67.5537 95.1882C66.5175 96.0062 65.4643 96.1606 64.2688 95.9194C65.6234 97.2197 66.7275 99.0563 68.0821 100.357C69.4367 101.657 70.0056 103.239 70.4493 105.089C70.876 106.275 70.1073 107.221 68.8035 107.911C65.9283 109.165 62.894 109.36 59.7344 109.823C58.2884 110.118 57.2013 108.945 55.9889 108.041C55.7214 107.913 55.0441 107.263 54.2415 106.881C53.4389 106.499 53.0291 105.976 52.7446 105.185C51.3561 102.558 49.0567 100.48 48.1863 97.4437C47.167 98.9253 46.1138 99.0797 44.7761 98.4431C44.241 98.1884 43.4384 97.8065 43.0625 98.6109C42.8119 99.1472 43.6145 99.5292 43.7568 99.9247C45.6634 102.143 47.4447 104.63 49.3513 106.849C49.7611 107.371 50.0287 107.499 50.4384 108.021C51.793 109.322 51.8439 111.313 50.557 112.667C47.5904 115.516 43.7874 116.657 39.5407 115.947C38.6128 115.833 38.3283 115.042 37.7933 114.787C36.1711 113.36 34.2814 111.805 32.6593 110.377C30.2345 108.568 29.2389 105.799 27.4575 103.313C26.9055 102.394 26.7463 101.335 26.1943 100.417C26.0521 100.021 26.0521 100.021 25.517 99.7667C22.7164 98.7617 20.952 96.9386 19.4382 94.5792C17.6569 92.0925 15.3574 90.0148 13.1833 87.6689C11.2936 86.114 9.92203 84.1501 8.67578 81.9181C6.89445 79.4313 4.86253 77.481 3.47404 74.8534C2.22779 72.6213 1.24907 70.5166 0.39565 68.1437C-0.0310597 66.9573 -0.45777 65.7708 -1.00978 64.8525C-2.64887 62.7613 -3.62759 60.6566 -3.69534 58.002C-3.88839 55.6156 -5.25994 53.6517 -6.75679 51.9559C-8.39588 49.8647 -10.4278 47.9143 -12.0669 45.8231C-12.6189 44.9048 -13.5468 44.791 -14.0988 43.8727C-16.5574 40.7359 -16.5168 37.1495 -15.423 33.4088C-15.0471 32.6043 -14.6712 31.7998 -14.5629 30.868C-14.4545 29.9362 -13.8111 29.259 -12.9001 28.7092C-11.1865 28.5413 -9.63214 27.3143 -7.79327 26.8783C-5.16873 26.1606 -2.63561 27.0384 0.0228009 27.648C2.68122 28.2576 5.48187 29.2626 7.90662 31.0722C9.119 31.977 10.8495 32.4727 12.5631 32.3049C14.937 32.1235 17.1687 31.5466 19.4174 31.6334C22.0589 31.5794 24.575 31.7935 27.2334 32.4031C29.3568 32.758 30.8536 34.4538 32.4758 35.8813C33.8304 37.1816 35.4187 37.2819 37.1492 37.7777C37.6843 38.0323 38.0771 37.8915 38.1855 36.9597C38.1685 36.296 38.6866 35.887 39.364 36.5372C39.6315 36.6645 39.6315 36.6645 39.899 36.7918C41.8632 36.0876 43.9865 36.4426 45.8254 36.0066C47.0039 35.584 48.0741 36.0933 49.1442 36.6026C50.4819 37.2393 51.8195 37.8759 53.1572 38.5125C54.1021 39.2899 55.03 39.4037 55.8156 39.1221C57.1364 39.095 58.4571 39.068 59.6356 38.6455C62.653 37.787 65.2945 37.7329 68.1121 39.4016C69.9848 40.2929 72.1081 40.6479 74.0723 39.9437C77.0897 39.0851 79.6228 39.9629 81.5125 41.5178C84.2048 43.4547 86.7718 45.6597 88.8206 48.2737C90.1922 50.2376 91.9566 52.0607 93.9716 53.3475C96.1288 55.0297 97.7679 57.1209 99.407 59.2121C101.866 62.349 104.324 65.4858 107.176 68.4818C107.585 69.0046 107.853 69.132 107.87 69.7956C108.74 72.8321 111.04 74.9098 113.214 77.2557C114.711 78.9515 115.547 80.6607 116.651 82.4973C116.793 82.8928 116.936 83.2883 117.203 83.4156C118.131 83.5294 117.881 84.0657 117.362 84.4747C117.237 84.7429 117.112 85.011 117.112 85.011C117.647 85.2657 117.898 84.7294 118.165 84.8567C118.558 84.7159 118.951 84.575 118.968 85.2387C119.11 85.6341 118.592 86.0431 118.324 85.9158C117.522 85.5338 117.539 86.1975 117.413 86.4657C115.859 87.6926 116.929 88.2019 117.749 89.2475C119.245 90.9433 120.742 92.639 122.114 94.6029C123.076 96.044 122.842 97.244 121.145 98.0755C119.181 98.7797 117.217 99.4839 115.236 99.5244C113.522 99.6923 111.917 98.9283 111.081 97.2191C110.244 95.5098 108.764 94.4777 107.535 92.9093C106.431 91.0727 105.361 90.5634 103.932 91.5222ZM55.623 88.5269C54.8373 88.8085 54.4614 89.613 53.9433 90.022C54.729 89.7403 55.3724 89.0632 55.623 88.5269C55.8905 88.6542 56.0158 88.386 56.1411 88.1179C55.8736 87.9905 55.7483 88.2587 55.623 88.5269ZM94.8252 81.616C93.772 81.7703 93.2708 82.8429 92.3598 83.3928C93.1624 83.7747 93.43 83.9021 93.8059 83.0976C94.0565 82.5613 94.5746 82.1523 94.8252 81.616C95.0927 81.7433 95.218 81.4751 94.8252 81.616C94.9505 81.3478 94.9505 81.3478 94.8252 81.616ZM113.007 84.6966C113.935 84.8104 114.22 85.6014 114.897 86.2515C115.039 86.647 115.574 86.9017 115.825 86.3654C116.343 85.9564 116.201 85.5609 115.541 85.5744C115.273 85.4471 115.005 85.3197 115.398 85.1789C116.292 83.9654 115.222 83.4561 115.205 82.7925C114.294 83.3423 113.509 83.624 113.007 84.6966C112.865 84.3011 112.865 84.3011 113.007 84.6966C112.74 84.5693 112.74 84.5693 113.007 84.6966ZM37.3327 112.274L37.6002 112.401C37.3327 112.274 37.458 112.005 37.3327 112.274C38.9785 109.451 41.1933 108.211 44.2276 108.016C45.5483 107.989 46.7268 107.566 48.1898 107.935C46.5507 105.843 45.0369 103.484 43.005 101.534C42.1854 100.488 41.3659 99.4424 40.7969 97.8605C40.2449 96.9422 37.5526 95.0053 36.767 95.287C34.8028 95.9912 32.6795 95.6362 30.8406 96.0723C30.4478 96.2131 30.0549 96.3539 29.5368 96.7629C27.3559 99.3307 27.3559 99.3307 28.8866 102.354L29.0289 102.749C30.2582 104.318 30.7018 106.168 31.9311 107.736C33.8208 109.291 35.3177 110.987 37.3327 112.274ZM75.6877 46.2849C75.9553 46.4122 75.9553 46.4122 75.6877 46.2849C75.9383 45.7486 76.1889 45.2123 76.172 44.5486C76.1551 43.885 76.4057 43.3487 76.9407 43.6033C77.4758 43.858 77.3505 44.1261 77.0999 44.6624C76.8662 45.8624 76.7579 46.7942 76.5242 47.9942C76.2736 48.5305 76.8087 48.7851 77.2015 48.6443C77.4691 48.7716 77.5944 48.5035 77.4521 48.108C77.5774 47.8398 77.5774 47.8398 77.7027 47.5717C77.9533 47.0353 77.5266 45.8489 78.5967 46.3582C79.3994 46.7402 78.6306 47.6855 78.5053 47.9536C77.8788 49.2944 78.1633 50.0854 79.3757 50.9902C79.6263 50.4539 79.484 50.0584 79.7346 49.5221C79.5924 49.1266 79.5755 48.4629 80.5034 48.5767C81.1637 48.5632 80.7878 49.3677 80.9301 49.7632C80.5711 51.2313 80.0869 52.9676 81.9596 53.8589C82.2102 53.3225 82.3186 52.3907 82.3016 51.7271C82.4269 51.4589 82.41 50.7953 82.9451 51.0499C83.3379 50.9091 83.3548 51.5727 83.2295 51.8409C83.1042 52.1091 83.2465 52.5045 82.9959 53.0409C82.1188 54.918 82.2949 56.6408 83.5242 58.2092C83.7579 57.0092 84.1338 56.2047 84.3674 55.0048C84.618 54.4684 84.618 54.4684 85.0109 54.3276C85.6712 54.3141 85.8135 54.7096 85.5629 55.2459C85.0617 56.3185 85.3631 57.7731 84.2015 58.8593C84.0762 59.1275 84.0762 59.1275 84.0762 59.1275C84.486 59.6503 84.6452 60.7094 85.4478 61.0914C85.607 62.1505 86.4096 62.5325 87.3544 63.3099C87.5881 62.11 88.0893 61.0373 88.3229 59.8373C88.5735 59.301 88.6988 59.0329 88.9663 59.1602C89.6267 59.1467 89.3761 59.683 89.2508 59.9512C89.1425 60.883 89.0341 61.8148 88.5329 62.8874C88.0317 63.96 88.1909 65.0192 89.1357 65.7966C89.1357 65.7966 89.0104 66.0648 89.4033 65.9239L89.5286 65.6558C89.9045 64.8513 90.1381 63.6513 90.514 62.8469C90.6393 62.5787 90.6224 61.9151 91.1574 62.1697C91.6925 62.4244 91.5672 62.6925 91.3166 63.2288C90.9407 64.0333 90.9577 64.697 90.5818 65.5014C90.3312 66.0378 90.0806 66.5741 90.0975 67.2377C90.934 68.947 92.1633 70.5154 93.2673 72.352C93.3587 70.7565 93.7177 69.2884 94.3442 67.9476C94.4695 67.6794 94.4526 67.0158 94.9876 67.2705C95.5227 67.5251 95.3974 67.7933 95.1468 68.3296C94.7878 69.7977 94.5542 70.9977 93.9277 72.3385C93.5518 73.1429 93.5687 73.8066 93.9954 74.993C94.605 72.9886 95.4821 71.1115 96.2339 69.5025C96.3592 69.2344 96.0747 68.4434 96.6098 68.698C97.1448 68.9527 97.2871 69.3482 97.0365 69.8845C96.2847 71.4934 95.8004 73.2297 95.0487 74.8387C94.1546 76.0522 94.8319 76.7023 95.3839 77.6206C95.5262 78.0161 95.7937 78.1434 96.1865 78.0026L96.4371 77.4662C96.9214 75.7299 97.2634 73.5982 97.7477 71.8619C97.9983 71.3256 98.3742 70.5211 98.6248 69.9848C98.7501 69.7166 99.1429 69.5758 99.4104 69.7031C99.9455 69.9578 99.5527 70.0986 99.3021 70.6349C99.0515 71.1712 98.9262 71.4394 98.6756 71.9757C98.066 73.9802 97.724 76.1119 97.2397 77.8482C96.9891 78.3845 96.7385 78.9208 96.8808 79.3163C97.5581 79.9665 97.7173 81.0256 98.5199 81.4076C99.3225 81.7895 99.4647 82.185 99.4817 82.8486C99.8745 82.7078 99.9998 82.4397 100.125 82.1715C100.752 80.8307 101.111 79.3626 101.737 78.0218C101.988 77.4855 102.238 76.9491 103.041 77.3311C103.576 77.5857 103.058 77.9947 102.807 78.5311L102.682 78.7992C101.93 80.4082 101.856 82.6673 100.301 83.8943C100.301 83.8943 99.9084 84.0351 100.176 84.1624C100.853 84.8125 100.352 85.8852 101.029 86.5353C101.707 87.1855 101.456 87.7218 100.545 88.2716C101.49 89.0491 102.401 88.4992 103.329 88.613C104.257 88.7268 104.775 88.3178 104.348 87.1314C104.223 87.3996 104.223 87.3996 104.223 87.3996C104.098 87.6677 103.579 88.0767 103.312 87.9494C103.044 87.8221 103.295 87.2857 103.42 87.0176C103.796 86.2131 104.565 85.2678 104.941 84.4633C105.066 84.1952 105.317 83.6588 105.852 83.9135C106.387 84.1681 106.404 84.8318 106.011 84.9726C105.886 85.2408 105.493 85.3816 105.902 85.9044C107.064 84.8183 108.226 83.7321 109.387 82.6459C109.905 82.237 110.423 81.828 110.833 82.3508C111.653 83.3964 112.029 82.5919 112.279 82.0556C112.797 81.6466 113.316 81.2376 113.976 81.2241C112.337 79.1328 110.572 77.3098 108.933 75.2185C107.579 73.9183 107.528 71.9274 106.173 70.6271C103.447 67.3629 100.721 64.0988 98.1201 60.5665C96.481 58.4752 94.5744 56.2567 92.2919 54.8426C90.812 53.8105 89.4573 52.5103 88.3533 50.6737C87.6591 49.3599 86.572 48.187 85.2343 47.5503C84.4317 47.1684 83.6122 46.1228 82.9349 45.4726C80.3509 42.6039 76.7477 41.2169 73.2291 43.1481C74.157 43.2619 74.0486 44.1937 74.7259 44.8438L74.8512 44.5757C75.1018 44.0393 75.3524 43.503 75.8875 43.7577C76.4226 44.0123 75.9045 44.4213 76.0467 44.8168C75.6539 44.9576 75.6708 45.6213 75.6877 46.2849ZM83.0063 84.5138C83.1655 85.5729 83.0571 86.5047 83.2163 87.5638L83.4838 87.6911C84.4862 85.5459 85.4886 83.4006 86.491 81.2553C88.0962 82.0192 86.132 82.7234 86.684 83.6417C87.4697 83.36 87.8456 82.5556 88.3807 82.8102C88.9157 83.0649 89.041 82.7967 89.4339 82.6559C90.2026 81.7105 91.2389 80.8926 91.8823 80.2154C92.2751 80.0746 92.2582 79.4109 92.7933 79.6656C93.203 80.1884 92.6849 80.5974 92.5596 80.8655C91.9162 81.5427 91.0052 82.0925 90.2365 83.0378L90.1112 83.306L90.3787 83.4333C90.9138 83.688 91.1644 83.1516 91.2897 82.8835C92.0584 81.9382 92.9694 81.3883 93.6128 80.7112C94.1309 80.3022 94.9166 80.0205 95.0758 81.0796C94.9505 81.3478 95.218 81.4751 95.3433 81.207C95.4686 80.9388 95.8615 80.798 95.5939 80.6706C95.3264 80.5433 95.1842 80.1478 95.1842 80.1478C93.9718 79.2431 93.1522 78.1974 92.5833 76.6155C91.6046 74.5108 91.0187 72.2652 89.6471 70.3013C88.2756 68.3374 87.2969 66.2326 85.8 64.5369C83.6258 62.191 82.1121 59.8316 80.8489 56.9359C80.2799 55.354 79.3181 53.9129 78.2311 52.74C76.0569 50.3941 74.1503 48.1755 72.8871 45.2798C72.4434 43.4297 71.2141 41.8613 68.9655 41.7745C68.3051 41.7881 67.8953 41.2653 67.3603 41.0106C66.2901 40.5013 65.0947 40.2602 64.0415 40.4145C61.7928 40.3277 59.7034 41.3001 57.4717 41.8769C60.2893 43.5457 61.9453 46.3005 63.6013 49.0554C63.818 47.1918 64.4445 45.851 65.3385 44.6375C65.4638 44.3694 65.7144 43.833 66.2495 44.0877C66.7846 44.3423 66.534 44.8787 66.2834 45.415C65.7822 46.4876 65.281 47.5603 64.7798 48.6329C63.8858 49.8464 64.1872 51.301 65.0067 52.3466C65.5587 53.2649 66.253 54.5787 67.0725 55.6243C67.2148 56.0197 67.7668 56.938 68.2849 56.529C68.6777 56.3882 68.9283 55.8519 68.9114 55.1882C69.2873 54.3838 69.7885 53.3111 70.1644 52.5066C70.2897 52.2385 70.5403 51.7022 71.0754 51.9568C71.6104 52.2115 71.0923 52.6205 70.967 52.8886C70.7164 53.4249 70.608 54.3567 70.3574 54.8931C69.8562 55.9657 69.355 57.0383 68.4441 57.5882C68.8539 58.111 69.2636 58.6338 69.5481 59.4247C69.924 58.6203 69.9071 57.9566 70.1577 57.4203C70.5335 56.6158 70.7672 55.4159 71.4106 54.7387C71.5359 54.4705 71.9288 54.3297 72.1963 54.457C72.4638 54.5844 72.3385 54.8525 72.2132 55.1207C71.5868 56.4615 70.9603 57.8023 70.3338 59.1431C70.0832 59.6794 69.8156 59.5521 69.1553 59.5656C69.8326 60.2157 69.9918 61.2748 70.7944 61.6568C71.6884 60.4433 71.6545 59.116 72.281 57.7753C72.4063 57.5071 72.3894 56.8434 72.9244 57.0981C73.4595 57.3527 73.3342 57.6209 73.3511 58.2845C73.2428 59.2163 73.0091 60.4163 72.2404 61.3616C71.4717 62.3069 71.7561 63.0979 72.701 63.8754C73.3275 62.5346 73.6864 61.0664 74.3129 59.7256C74.4382 59.4575 74.4213 58.7938 74.9564 59.0485C75.4914 59.3031 75.3661 59.5713 75.2408 59.8395C74.8649 60.6439 74.7566 61.5757 74.3807 62.3802C72.9685 64.0027 73.5375 65.5846 74.6245 66.7576C74.8921 66.8849 74.7668 67.153 74.7668 67.153C75.3188 68.0713 75.6033 68.8623 76.6734 69.3716C77.3846 71.349 78.3633 73.4537 79.9855 74.8813C80.805 75.9269 81.1978 75.7861 82.0919 74.5726C82.4678 73.7682 82.8437 72.9637 83.2196 72.1592C83.3449 71.891 83.863 71.482 84.1305 71.6094C84.6656 71.864 84.415 72.4003 84.2897 72.6685C83.7885 73.7411 83.2873 74.8138 82.3763 75.3636C80.9472 76.3224 81.3739 77.5089 81.926 78.4272C82.3527 79.6136 82.5118 80.6727 82.7963 81.4637C82.8302 82.791 82.7218 83.7228 83.0063 84.5138ZM39.5841 45.1645C39.4588 45.4327 39.4588 45.4327 39.7264 45.56C41.4908 47.3831 42.3442 49.756 43.5904 51.988C44.8367 54.2201 45.6901 56.593 46.6688 58.6977C47.0955 59.8842 48.3079 60.789 48.7346 61.9754C49.7133 64.0802 50.5498 65.7894 51.9214 67.7533C52.3312 68.2761 52.7409 68.7989 53.1507 69.3217C54.8067 72.0766 56.5881 74.5633 58.6369 77.1774C61.0955 80.3142 64.2146 83.4375 64.4584 87.8149C64.6007 88.2103 64.6176 88.874 65.278 88.8605C65.9383 88.847 65.6877 89.3833 65.1696 89.7923C64.2586 90.3421 63.3646 91.5556 62.4536 92.1054C61.5427 92.6553 62.4875 93.4327 62.2369 93.969C62.1116 94.2372 62.7889 94.8873 63.1818 94.7465C64.77 94.8468 66.3583 94.9471 67.6452 93.5928C66.023 92.1652 66.023 92.1652 64.4686 93.3922C64.3433 93.6603 64.0758 93.533 63.9505 93.8012C63.5577 93.942 63.4324 94.2102 62.8973 93.9555C62.4875 93.4327 62.8803 93.2919 63.2732 93.151C64.4517 92.7285 64.4009 90.7376 65.8469 90.4424C65.9553 89.5106 66.3312 88.7061 66.9746 88.029C67.0999 87.7608 67.2252 87.4927 66.9577 87.3653C66.4226 87.1107 66.5479 86.8425 66.6732 86.5744C67.1744 85.5017 67.6756 84.4291 68.1768 83.3564C68.3021 83.0883 68.2851 82.4246 68.8202 82.6793C69.3553 82.9339 69.1047 83.4703 68.9794 83.7384C68.6035 84.5429 68.2276 85.3474 67.9939 86.5473C68.9049 85.9975 69.423 85.5885 70.0665 84.9114C70.4593 84.7705 70.5846 84.5024 71.1197 84.757C71.5294 85.2798 71.6547 85.0116 72.0476 84.8708C72.5657 84.4618 73.2091 83.7847 73.9948 83.503C74.3876 83.3621 74.9058 82.9532 75.048 83.3486C75.7253 83.9988 76.2434 83.5898 76.7616 83.1808C77.1544 83.0399 77.5472 82.8991 77.6895 83.2946C77.8317 83.6901 77.4389 83.8309 77.3136 84.0991C76.4026 84.6489 75.4916 85.1987 74.8482 85.8759C75.3833 86.1305 75.9014 85.7215 76.0267 85.4534C76.9377 84.9035 77.5811 84.2264 78.6174 83.4084C79.0102 83.2676 79.2608 82.7312 79.7959 82.9859C80.331 83.2405 79.5453 83.5222 79.6875 83.9177C80.0803 83.7768 80.5985 83.3679 80.9913 83.227C81.3841 83.0862 81.5094 82.818 81.3672 82.4225C81.0658 80.9679 80.6221 79.1178 80.3207 77.6632C79.552 78.6085 78.8916 78.6221 79.1422 78.0857C79.5012 76.6176 78.2888 75.7128 77.7368 74.7945C75.5118 70.4577 73.0363 66.6573 70.2932 62.7295C68.9047 60.1019 67.1233 57.6152 65.342 55.1285C63.8282 52.7691 62.565 49.8734 61.0513 47.514C58.5757 43.7135 55.5989 40.9857 51.5859 39.0758C49.1781 37.9299 46.8041 38.1113 44.1627 38.1654C43.1095 38.3197 42.3238 38.6014 41.3959 38.4876C40.0751 38.5146 39.005 38.0053 37.8434 39.0914C37.7181 39.3596 37.1831 39.105 36.5227 39.1185C36.1299 39.2593 35.3273 38.8773 34.5246 38.4954C35.3442 39.541 35.6287 40.332 36.306 40.9821C37.2678 42.4232 38.2295 43.8643 39.5841 45.1645ZM15.6245 38.3509C15.4992 38.6191 15.4992 38.6191 15.6245 38.3509C15.7668 38.7464 15.8921 38.4783 15.6245 38.3509C16.0004 37.5465 16.3763 36.742 16.7522 35.9375C16.8775 35.6693 17.2534 34.8649 17.7885 35.1195C18.3236 35.3742 18.073 35.9105 17.8224 36.4468C17.3212 37.5194 16.9622 38.9876 16.7286 40.1875C17.1045 39.383 17.3551 38.8467 17.7309 38.0422C17.8562 37.7741 18.2491 37.6332 18.5166 37.7606C18.7841 37.8879 18.6588 38.156 18.5336 38.4242C18.1577 39.2287 18.1746 39.8923 17.7987 40.6968C17.1722 42.0376 17.1722 42.0376 18.5099 42.6742C18.6013 41.0788 18.9603 39.6107 19.8543 38.3972C19.9796 38.129 20.1049 37.8609 20.3724 37.9882C20.64 38.1155 20.7822 38.511 20.6569 38.7792C20.4063 39.3155 20.0304 40.12 20.0473 40.7836C19.939 41.7154 19.4378 42.788 19.597 43.8472C19.7223 43.579 19.8476 43.3108 19.9729 43.0427C20.2235 42.5064 19.922 41.0518 20.8499 41.1656C21.6526 41.5475 20.8838 42.4928 20.7755 43.4247C20.6671 44.3565 20.3996 44.2291 21.3444 45.0066C21.3105 43.6793 22.3468 42.8613 22.5805 41.6613C22.8311 41.125 22.6888 40.7295 23.2239 40.9842C23.759 41.2388 23.9012 41.6343 23.6506 42.1706C23.1494 43.2433 22.7735 44.0478 22.5398 45.2477C22.164 46.0522 21.7881 46.8567 22.7329 47.6341C22.7329 47.6341 22.7329 47.6341 22.8751 48.0296L23.0004 47.7615C23.3763 46.957 23.3594 46.2933 23.7353 45.4889C23.8606 45.2207 23.9859 44.9525 24.521 45.2072C25.056 45.4618 24.6632 45.6027 24.8054 45.9981C24.4295 46.8026 24.4465 47.4663 24.0706 48.2707C23.6947 49.0752 23.8369 49.4707 24.2467 49.9935C24.6226 49.189 24.4634 48.1299 25.2321 47.1846C25.3574 46.9164 25.608 46.3801 26.1431 46.6348C26.6782 46.8894 26.4276 47.4257 26.3023 47.6939C25.8011 48.7665 25.835 50.0938 25.3338 51.1665C25.0832 51.7028 25.1001 52.3664 25.9027 52.7484C26.2786 51.9439 26.387 51.0121 26.7629 50.2076C26.8882 49.9395 27.0135 49.6713 27.4063 49.5305C28.0667 49.517 27.8161 50.0533 27.9583 50.4488C27.5824 51.2532 27.5993 51.9169 27.2235 52.7214C26.7223 53.794 26.4886 54.994 27.701 55.8987C28.2022 54.8261 28.3105 53.8943 28.8117 52.8217C28.937 52.5535 29.0623 52.2853 29.5974 52.54C29.8649 52.6673 30.0072 53.0628 29.8819 53.3309C29.6313 53.8673 29.2554 54.6718 29.2723 55.3354C28.9134 56.8035 28.6797 58.0035 29.3739 59.3173L29.6415 59.4446L29.7668 59.1764C30.0004 57.9765 30.1088 57.0446 30.61 55.972C30.7353 55.7039 30.593 55.3084 30.9859 55.1675C31.6462 55.154 31.7885 55.5495 31.5379 56.0858C31.4295 57.0176 31.0536 57.8221 31.0706 58.4857C31.2297 59.5449 30.0682 60.631 31.1553 61.804C31.03 62.0721 31.2975 62.1994 31.565 62.3268C31.9579 62.1859 31.6903 62.0586 31.5481 61.6631C31.5142 60.3358 31.6056 58.7404 32.2321 57.3996C32.4827 56.8633 32.7333 56.327 33.5359 56.7089C34.071 56.9636 33.5529 57.3726 33.3023 57.9089C32.5505 59.5178 32.3338 61.3815 32.7774 63.2315C33.1533 62.4271 33.4039 61.8907 33.5123 60.9589C33.6376 60.6908 33.8882 60.1545 34.4232 60.4091C34.9583 60.6638 34.5655 60.8046 34.7077 61.2001C34.4571 61.7364 34.5993 62.1319 34.3487 62.6682C33.9898 64.1363 32.9705 65.618 33.9322 67.0591C33.9322 67.0591 33.8069 67.3272 34.0745 67.4545L34.1998 67.1864C34.4334 65.9864 34.6671 64.7865 34.9008 63.5865C35.0261 63.3183 35.2767 62.782 35.937 62.7685C36.5974 62.755 35.954 63.4321 36.2215 63.5595C36.506 64.3504 36.1301 65.1549 35.7542 65.9594C35.6458 66.8912 35.1446 67.9638 35.6966 68.8821C35.8219 68.614 36.0725 68.0776 36.1978 67.8095C36.0556 67.414 36.1809 67.1458 36.4484 67.2732C36.716 67.4005 36.9835 67.5278 37.1257 67.9233C37.268 68.3188 37.1427 68.5869 37.0174 68.8551C36.7837 70.0551 36.1572 71.3959 36.7262 72.9778C36.7262 72.9778 36.7262 72.9778 36.6009 73.2459C36.6009 73.2459 36.6009 73.2459 36.7262 72.9778C36.7262 72.9778 36.7262 72.9778 36.4586 72.8505C36.9768 72.4415 36.8345 72.046 36.9598 71.7778C37.0682 70.846 37.1765 69.9142 37.82 69.2371C37.9453 68.9689 37.9283 68.3053 38.4634 68.5599C38.9985 68.8146 38.8732 69.0827 38.8901 69.7464C38.6565 70.9463 38.565 72.5418 38.3314 73.7417C38.223 74.6735 38.2399 75.3372 38.6497 75.86C39.1679 75.451 38.7581 74.9282 38.8834 74.66C39.0087 74.3919 39.134 74.1237 39.4015 74.251C39.669 74.3783 39.5438 74.6465 39.686 75.042C39.5776 75.9738 39.344 77.1738 39.2356 78.1056C39.0019 79.3055 39.2864 80.0965 40.2313 80.8739C40.3227 79.2785 39.2187 77.4419 40.8984 75.9468C41.0237 75.6786 41.0067 75.015 41.8093 75.3969C42.3444 75.6516 42.0938 76.1879 41.9685 76.4561C41.0745 77.6695 41.2337 78.7287 41.2675 80.0559C41.4267 81.1151 41.5859 82.1742 41.0847 83.2468C40.9594 83.515 41.1016 83.9105 41.3692 84.0378C41.8704 82.9652 41.9787 82.0334 42.2124 80.8334C42.3377 80.5652 42.1954 80.1698 42.5883 80.0289C42.8558 80.1562 43.1233 80.2836 43.2656 80.679C43.1572 81.6109 43.4417 82.4018 43.3333 83.3336C42.7068 84.6744 42.7407 86.0017 43.435 87.3155C43.5772 87.711 42.6662 88.2608 43.7364 88.7701C44.3629 87.4293 44.9894 86.0885 45.3483 84.6204C45.5989 84.0841 45.8495 83.5477 46.3846 83.8024C47.0449 83.7889 46.4015 84.466 46.5438 84.8615C46.4693 87.1206 44.8065 89.2794 45.9275 91.7796C45.9275 91.7796 45.8022 92.0478 45.6769 92.3159C45.5516 92.5841 45.284 92.4568 45.0165 92.3294C44.6067 91.8066 43.8041 91.4247 43.3943 90.9019C42.3242 90.3926 41.5047 89.3469 41.2032 87.8923C40.4751 85.2513 39.3542 82.7511 38.1079 80.519C36.3097 77.3686 35.0295 73.8093 33.3566 70.3908C32.1103 68.1587 31.5075 65.2495 29.8684 63.1583C28.7813 61.9853 28.2124 60.4034 27.5181 59.0896C25.3101 55.4165 23.6202 51.3343 21.0193 47.802C20.6096 47.2792 20.1998 46.7564 19.9322 46.6291C18.7199 45.7243 17.5075 44.8195 16.8132 43.5057C15.4248 40.8782 13.3759 38.2642 11.5946 35.7774C10.3483 33.5454 9.27818 33.0361 8.20804 32.5268C5.24821 30.4626 2.18002 29.3302 -1.4063 28.6068C-3.79718 28.1245 -6.18806 27.6423 -8.79566 29.0236C-9.70662 29.5734 -10.4923 29.8551 -11.4033 30.4049C-13.3674 31.1091 -13.7433 31.9136 -13.8178 34.1727C-13.2997 33.7637 -13.3166 33.1001 -12.7985 32.6911C-12.9407 32.2956 -12.4226 31.8866 -12.2803 32.2821C-12.1381 32.6775 -12.2634 32.9457 -12.3887 33.2139C-13.2827 34.4273 -13.9092 35.7681 -14.5357 37.1089C-15.1622 38.4497 -14.8608 39.9043 -14.5594 41.359C-14.0582 40.2863 -14.0751 39.6227 -13.9668 38.6909C-13.767 36.1636 -12.4801 34.8093 -10.5329 33.4415C-10.1401 33.3006 -10.0148 33.0325 -9.605 33.5553C-9.19522 34.0781 -9.58806 34.2189 -9.98089 34.3598C-11.0172 35.1778 -10.9833 36.5051 -11.6098 37.8459C-11.7351 38.114 -11.7181 38.7777 -11.8434 39.0458C-12.5783 41.3184 -12.6528 43.5775 -10.8884 45.4006C-10.8884 45.4006 -10.7462 45.7961 -10.6209 45.5279C-10.6209 45.5279 -10.6209 45.5279 -10.7631 45.1324C-11.0645 43.6778 -10.9731 42.0824 -10.6141 40.6142C-10.2552 39.1461 -10.0384 37.2825 -8.60934 36.3237C-8.21651 36.1828 -7.96591 35.6465 -7.55614 36.1693C-7.4139 36.5648 -7.5392 36.833 -7.93203 36.9738C-9.84539 39.6689 -10.1705 42.4643 -9.30011 45.5009C-9.14094 46.56 -9.40847 46.4327 -10.3364 46.3189C-9.53377 46.7008 -9.51683 47.3645 -8.71423 47.7464C-8.73117 47.0828 -8.87341 46.6873 -8.62281 46.151C-8.53138 44.5556 -8.43996 42.9601 -7.2784 41.874C-7.1531 41.6058 -6.7772 40.8013 -6.36743 41.3241C-5.83236 41.5788 -6.35049 41.9878 -6.60109 42.5241C-7.47818 44.4012 -7.6949 46.2648 -7.37655 48.3831C-6.62476 46.7741 -6.14051 45.0378 -5.65625 43.3015C-5.53095 43.0334 -5.28035 42.4971 -5.01282 42.6244C-4.47775 42.879 -4.72834 43.4153 -4.85364 43.6835C-5.3379 45.4198 -5.82216 47.1561 -6.30641 48.8924C-6.54007 50.0923 -6.64843 51.0241 -5.31076 51.6607C-5.77134 49.147 -5.03649 46.8744 -4.56917 44.4745C-4.33551 43.2745 -3.54984 42.9928 -2.63887 42.443C-2.24604 42.3022 -1.85321 42.1613 -1.71097 42.5568C-1.56873 42.9523 -1.69403 43.2205 -2.08687 43.3613C-2.605 43.7703 -2.99783 43.9111 -2.9809 44.5748C-4.34224 48.1882 -4.91792 51.5199 -3.10272 55.3339C-2.85212 54.7976 -2.72682 54.5294 -2.60153 54.2613C-2.00891 51.5932 -0.471449 49.7025 1.60108 48.0666C1.99392 47.9257 2.11921 47.6576 2.65428 47.9122C2.79652 48.3077 2.67122 48.5758 2.27839 48.7167C2.02779 49.253 1.63496 49.3938 1.11682 49.8028C-0.562872 51.298 -1.43996 53.1751 -1.78198 55.3069C-1.89034 56.2387 -2.14094 56.775 -2.2493 57.7068C-2.6252 58.5113 -2.48296 58.9068 -1.80565 59.5569C-1.68035 59.2887 -1.68035 59.2887 -1.55505 59.0206C-1.1961 57.5524 -0.444306 55.9435 0.182187 54.6027C0.432785 54.0664 0.82562 53.9255 1.09315 54.0529C1.62822 54.3075 1.37763 54.8438 1.25233 55.112C1.00173 55.6483 0.751135 56.1846 0.500539 56.7209C-0.251254 58.3299 -0.877749 59.6707 -0.826934 61.6616C-0.701637 61.3935 -0.701635 61.3935 -0.576336 61.1253C-0.125955 58.0617 2.33941 56.2849 4.00217 54.1261C4.12747 53.858 4.6456 53.449 4.78784 53.8445C5.32291 54.0991 4.80477 54.5081 4.67947 54.7763C4.17828 55.8489 3.40955 56.7942 2.37329 57.6122C0.050159 59.7845 0.260149 62.8346 0.202601 65.7573C0.578497 64.9528 0.686857 64.021 0.937455 63.4847C1.42171 61.7484 2.44104 60.2668 3.19283 58.6578C3.44343 58.1215 3.96156 57.7125 4.49663 57.9671C5.29924 58.3491 4.38827 58.899 4.26297 59.1671C2.47491 61.5941 1.757 64.5303 1.03908 67.4666C0.913783 67.7347 0.663185 68.271 1.07296 68.7938C1.44885 67.9894 1.55721 67.0576 1.66558 66.1258C1.99066 63.3303 3.38588 61.0442 4.92334 59.1536C5.44147 58.7446 5.81737 57.9401 6.22714 58.4629C6.90445 59.1131 5.99348 59.6629 5.74289 60.1992C4.20542 62.0898 3.20303 64.2351 2.73572 66.635C2.50206 67.835 3.071 69.4169 1.37437 70.2484L1.51661 70.6439C1.80108 71.4349 2.08555 72.2259 2.63756 73.1442C2.76286 72.876 2.76286 72.876 2.88816 72.6078C2.8204 69.9533 4.21563 67.6671 5.34332 65.2537C5.59391 64.7174 6.11205 64.3084 6.50488 64.1676C6.63018 63.8994 7.02302 63.7586 7.16525 64.154C7.43279 64.2814 7.30749 64.5495 7.18219 64.8177C6.53876 65.4948 6.28816 66.0312 5.91226 66.8356C4.90987 68.9809 4.03278 70.858 3.69076 72.9898C3.7077 73.6535 3.4571 74.1898 3.74158 74.9807C5.13007 77.6083 7.55482 79.4178 8.94332 82.0454C9.35309 82.5682 9.37002 83.2318 10.1726 83.6138C10.281 82.682 10.3894 81.7502 10.3724 81.0866C10.1963 79.3638 10.6806 77.6275 11.4323 76.0185C11.6829 75.4822 11.8082 75.2141 12.3433 75.4687C12.8784 75.7234 12.3603 76.1323 12.5025 76.5278C11.8929 78.5323 11.6762 80.3959 11.4595 82.2595C11.4764 82.9231 11.9031 84.1096 10.7246 84.5321C10.3318 84.6729 10.5993 84.8003 10.5993 84.8003C11.5611 86.2413 12.5229 87.6824 14.1281 88.4464C13.7928 85.6645 14.5277 83.3919 15.6554 80.9784C15.7807 80.7103 16.0313 80.174 16.5663 80.4286C16.8339 80.5559 16.9761 80.9514 16.7255 81.4877C16.4749 82.0241 16.2243 82.5604 15.9737 83.0967C15.0966 84.9738 15.0221 87.2329 15.3405 89.3512C15.4997 90.4103 16.9626 90.7787 17.5146 91.697C17.7822 91.8244 17.7822 91.8243 17.9244 92.2198C17.9244 92.2198 17.7991 92.488 18.192 92.3472L18.3173 92.079C17.8567 89.5653 18.1987 87.4335 19.3264 85.0201C19.577 84.4837 19.4178 83.4246 20.2204 83.8066C20.7555 84.0612 20.3796 84.8657 20.129 85.402C19.3941 87.6746 18.9268 90.0746 19.3874 92.5883C19.5296 92.9838 19.0115 93.3928 19.4213 93.9156C20.7928 95.8795 22.4319 97.9707 24.5722 98.9893C25.1073 99.2439 25.5001 99.1031 25.7507 98.5668C26.77 97.0852 28.0569 95.7308 29.3437 94.3765C30.1125 93.4312 31.0234 92.8814 32.0597 92.0634C32.4525 91.9226 32.8454 91.7817 32.9876 92.1772C33.3974 92.7 32.737 92.7135 32.6117 92.9817C31.826 93.2633 31.1826 93.9405 30.4139 94.8858C31.3418 94.9996 32.1275 94.718 32.6456 94.309C33.8072 93.2228 35.111 92.5321 36.1472 91.7141C36.54 91.5733 37.0582 91.1643 37.2004 91.5598C37.3427 91.9553 37.3427 91.9553 37.7355 91.8144C38.1283 91.6736 38.3789 91.1373 38.914 91.3919C39.3068 91.2511 39.5744 91.3784 39.7166 91.7739C39.8588 92.1694 39.466 92.3102 39.0732 92.4511C38.1453 92.3372 37.7694 93.1417 37.2512 93.5507C37.1259 93.8189 36.4656 93.8324 36.8753 94.3552C37.1429 94.4825 37.8202 95.1327 38.0708 94.5963C38.1961 94.3282 38.4467 93.7919 38.8395 93.651C39.4829 92.9739 39.8588 92.1694 40.6445 91.8877C41.1626 91.4787 41.4302 91.606 41.8399 92.1288C41.9822 92.5243 42.1244 92.9198 41.7316 93.0607C40.1433 92.9604 39.6591 94.6966 38.6228 95.5146C39.6929 96.0239 40.6378 96.8014 41.3151 97.4515C41.7249 97.9743 42.1177 97.8335 42.3852 97.9608C43.9735 98.0611 43.9735 98.0611 45.3857 96.4386C44.8506 96.184 44.6 96.7203 44.0819 97.1293C43.689 97.2701 43.4384 97.8065 43.2962 97.411C42.8864 96.8882 43.2792 96.7473 43.6721 96.6065C44.1902 96.1975 44.8336 95.5203 44.5492 94.7294C44.5492 94.7294 44.6745 94.4612 44.7998 94.193C45.7107 93.6432 45.8191 92.7114 46.4625 92.0343C47.2313 91.0889 48 90.1436 49.0363 89.3256C49.4291 89.1848 49.9472 88.7758 50.357 89.2986C50.7668 89.8214 50.3739 89.9622 49.8558 90.3712C49.3207 90.1166 48.552 91.0619 47.8002 92.6709C48.5859 92.3892 49.2462 92.3757 49.6221 91.5712C50.1233 90.4986 50.8921 89.5532 51.9283 88.7353C52.4465 88.3263 53.073 86.9855 54.16 88.1584C54.16 88.1584 54.5529 88.0176 54.6782 87.7494C55.071 87.6086 55.3216 87.0722 55.7144 86.9314C56.1073 86.7906 56.3579 86.2543 56.7676 86.7771C57.3027 87.0317 56.7846 87.4407 56.6593 87.7089C56.3917 87.5815 56.2664 87.8497 56.1411 88.1179C56.2834 88.5133 56.534 87.977 56.534 87.977C56.9268 87.8362 57.4449 87.4272 57.8378 87.2863C58.2306 87.1455 58.7487 86.7365 58.891 87.132C59.3008 87.6548 58.5151 87.9365 58.1222 88.0773C57.2113 88.6272 56.175 89.4451 55.5316 90.1223C56.8693 90.7589 56.6017 90.6316 57.638 89.8136C58.6743 88.9956 59.8358 87.9095 60.8721 87.0915C61.2649 86.9506 61.7831 86.5416 61.9253 86.9371C62.3351 87.4599 61.5494 87.7416 61.1566 87.8824C59.8528 88.5731 58.8165 89.3911 58.0478 90.3364C58.3153 90.4637 58.5828 90.5911 58.7081 90.3229C60.0119 89.6322 61.0313 88.1506 62.2098 87.7281L62.3351 87.4599C61.9084 86.2735 62.142 85.0735 61.3225 84.0279C58.5624 79.4364 54.7661 75.663 52.0061 71.0715C50.4923 68.7122 48.4604 66.7618 47.7322 64.1207C47.4478 63.3297 47.1633 62.5388 46.486 61.8886C45.2567 60.3202 44.4202 58.611 43.5837 56.9017C42.7303 54.5288 41.6263 52.6922 40.38 50.4602C38.5818 47.3098 36.6582 44.4276 34.4671 41.4181C32.276 38.4086 29.6921 35.5399 25.9635 34.421C22.8953 33.2886 19.4682 33.6244 16.2916 33.4238C14.8456 33.7189 14.3275 34.1279 14.5205 36.5144C14.4122 37.4462 15.2148 37.8281 15.6245 38.3509ZM68.9863 104.72C68.4343 103.802 68.2751 102.743 67.5978 102.093C65.8334 100.27 64.1944 98.1785 62.43 96.3554C60.9331 94.6597 59.8291 92.8231 57.1707 92.2135C55.3149 91.9859 53.8519 91.6174 52.2806 92.1808C50.7092 92.7441 49.4224 94.0985 47.7088 94.2663C48.5283 95.3119 49.3479 96.3575 49.6323 97.1485C50.628 99.9169 52.6599 101.867 54.0484 104.495C54.3329 105.286 55.1355 105.668 55.6706 105.922C56.2056 106.177 56.314 105.245 56.7068 105.104C59.4228 102.791 62.0473 102.074 65.3831 103.333C66.4532 103.843 67.398 104.62 68.9863 104.72ZM67.5944 91.6018C68.397 91.9838 69.0743 92.6339 69.8769 93.0159C72.0341 94.6981 73.155 97.1984 74.6688 99.5577C74.8111 99.9532 74.9533 100.349 75.4714 99.9397C78.5972 98.1494 81.7229 96.359 85.7021 96.9416C85.2923 96.4188 84.7572 96.1642 84.615 95.7687C82.9759 93.6774 82.1225 91.3045 79.9653 89.6223C77.3983 87.4173 73.5613 87.2302 70.5609 88.7524C69.2571 89.443 68.6306 90.7838 67.5944 91.6018ZM103.214 94.4585C102.929 93.6675 102.519 93.1447 102.11 92.6219C100.88 91.0535 99.7933 89.8806 98.4387 88.5803C97.3516 87.4074 96.0139 86.7708 94.6762 86.1341C92.5359 85.1155 90.2873 85.0288 87.9472 86.5374C86.5181 87.4963 86.3014 89.3599 87.656 90.6601C89.5457 92.215 91.4354 93.7699 92.8069 95.7338C93.359 96.6521 94.0193 96.6386 94.9303 96.0888C97.6463 93.7756 100.254 92.3943 103.214 94.4585ZM120.668 94.8981C120.258 94.3753 120.116 93.9798 119.581 93.7252C118.903 93.0751 118.226 92.4249 117.799 91.2385C117.373 90.052 116.804 88.4701 115.073 87.9743C114.806 87.847 114.538 87.7197 114.396 87.3242C112.364 85.3738 108.652 84.9186 106.312 86.4272C106.187 86.6954 105.919 86.568 106.062 86.9635C106.062 86.9635 106.079 87.6272 106.329 87.0909C106.455 86.8227 106.705 86.2864 106.597 87.2182C106.614 87.8818 106.631 88.5455 107.04 89.0683C107.735 90.382 108.947 91.2868 110.034 92.4598C110.711 93.1099 111.246 93.3645 112.157 92.8147C112.676 92.4057 113.603 92.5195 114.139 92.7742C116.279 93.7928 118.277 94.4159 120.668 94.8981ZM48.5081 110.053C46.2426 109.302 44.1361 109.611 41.9044 110.188C40.8512 110.342 39.815 111.16 39.3138 112.233C38.562 113.842 38.9718 114.365 40.4347 114.733C43.7535 115.329 46.2358 114.216 48.8265 112.171C50.3809 110.944 50.1133 110.817 48.5081 110.053ZM76.4332 101.381C76.8599 102.567 77.6625 102.949 78.7157 102.795C80.304 102.895 81.6248 102.868 82.9455 102.841C84.6591 102.673 85.8206 101.587 86.84 100.105C87.2159 99.301 86.9483 99.1737 86.4133 98.919C83.4704 97.5185 80.7375 99.168 78.2552 100.281C77.4695 100.563 77.3611 101.495 76.4332 101.381ZM68.1092 106.597C66.7716 105.961 65.9689 105.579 65.1663 105.197C62.7585 104.051 60.3846 104.232 58.1867 106.137C57.7939 106.277 57.2758 106.686 57.6856 107.209C57.8278 107.605 58.2376 108.127 58.8979 108.114C61.8069 108.187 64.699 107.597 68.1092 106.597ZM96.1427 96.9936C97.6226 98.0257 100.389 97.7034 101.944 96.4765C102.462 96.0675 102.32 95.672 101.91 95.1492C100.037 94.2579 97.0198 95.1164 96.1427 96.9936ZM81.2758 84.018C80.2395 84.836 79.5961 85.5131 78.5598 86.3311C79.2371 86.9813 80.0397 87.3632 80.4495 87.886C81.1268 88.5362 81.5196 88.3953 81.628 87.4635C81.7364 86.5317 81.5772 85.4726 81.2758 84.018ZM117.525 96.0248C116.187 95.3882 114.724 95.0197 113.404 95.0468C113.011 95.1876 112.476 94.933 112.493 95.5966C112.367 95.8648 112.777 96.3876 113.045 96.5149C113.58 96.7695 114.115 97.0242 114.901 96.7425C115.419 96.3335 116.472 96.1792 117.525 96.0248ZM60.1881 91.355C61.9355 92.5144 62.4198 90.7781 63.3307 90.2283C63.7236 90.0875 63.5813 89.692 63.4391 89.2965C63.2969 88.901 62.904 89.0418 62.7787 89.31C61.8677 89.8598 61.099 90.8052 60.1881 91.355ZM82.6067 89.5683C83.4602 91.9412 84.7301 89.9232 85.658 90.037C84.8384 88.9914 83.4093 89.9502 82.6067 89.5683ZM94.6085 83.4796C95.2688 83.466 95.428 84.5252 95.8039 83.7207C96.0545 83.1844 96.5726 82.7754 96.6979 82.5072C96.8232 82.2391 97.2161 82.0982 96.9485 81.9709C96.8063 81.5754 96.4135 81.7163 96.2882 81.9844C95.6447 82.6616 95.1266 83.0706 94.6085 83.4796ZM96.0884 84.5117C96.3559 84.639 96.6235 84.7663 96.891 84.8936C97.4261 85.1483 97.6767 84.612 97.9273 84.0756C98.0526 83.8075 97.9103 83.412 97.6428 83.2847C97.1077 83.03 96.9824 83.2982 96.8571 83.5663C96.9994 83.9618 96.6065 84.1027 96.0884 84.5117ZM79.1694 84.3267C78.526 85.0038 77.615 85.5537 76.9716 86.2308L77.2391 86.3581C77.8825 85.681 78.7935 85.1312 79.1694 84.3267ZM34.752 94.0003C36.0727 93.9732 36.4486 93.1688 36.8245 92.3643C36.1811 93.0414 35.663 93.4504 34.752 94.0003ZM37.3427 91.9553C37.3427 91.9553 37.2174 92.2234 37.3427 91.9553C37.2174 92.2234 37.2174 92.2234 37.2174 92.2234C37.2174 92.2234 37.2174 92.2234 37.3427 91.9553C37.4849 92.3508 37.2174 92.2234 37.3427 91.9553ZM77.7366 48.8989C77.7366 48.8989 77.6113 49.1671 77.7366 48.8989C77.6113 49.1671 77.6113 49.1671 77.7366 48.8989C77.6113 49.1671 77.7366 48.8989 77.7366 48.8989ZM-6.84148 48.6377C-6.84148 48.6377 -7.23432 48.7785 -6.84148 48.6377C-7.23432 48.7785 -6.96678 48.9059 -6.84148 48.6377C-6.96678 48.9059 -6.96678 48.9059 -6.84148 48.6377C-6.96678 48.9059 -6.96678 48.9059 -6.84148 48.6377ZM11.3511 83.1913C11.3511 83.1913 11.2089 82.7958 11.3511 83.1913C11.2089 82.7958 11.0836 83.064 11.3511 83.1913C11.0836 83.064 11.0836 83.064 11.3511 83.1913Z" fill="#040404"/>
<path d="M81.0824 84.2075C81.2421 85.2628 81.6706 86.445 81.4355 87.6405C81.3264 88.5689 80.9315 88.7091 80.251 88.0611C79.5704 87.4131 79.0327 87.1592 78.3522 86.5113C79.2679 85.9637 80.0407 85.0221 81.0824 84.2075Z" fill="#040404"/>
<path d="M112.651 84.7715C113.297 84.0964 114.085 83.8157 114.731 83.1406C115.016 83.9295 116.09 84.4378 115.05 85.2533C114.924 85.5207 115.192 85.6477 115.192 85.6477C115.855 85.6345 115.998 86.0289 115.478 86.4367C114.958 86.8444 114.689 86.7173 114.547 86.3229C114.136 85.8013 113.725 85.2798 112.651 84.7715C112.92 84.8986 112.651 84.7715 112.651 84.7715Z" fill="#040404"/>
<path d="M59.9368 91.3545C60.8536 90.8073 61.6273 89.8662 62.5441 89.319C62.6703 89.052 63.0656 88.9119 63.2086 89.3057C63.3517 89.6996 63.6209 89.8265 63.0994 90.2336C62.1826 90.7808 61.6949 92.5095 59.9368 91.3545Z" fill="#040404"/>
<path d="M82.3509 89.7553C83.5469 89.9964 84.7092 88.9109 85.4037 90.224C84.4753 90.1102 83.2046 92.127 82.3509 89.7553Z" fill="#040404"/>
<path d="M94.4293 83.8006C94.9515 83.3939 95.5999 82.7205 96.122 82.3138C96.2483 82.0471 96.6442 81.9072 96.7876 82.3008C97.0573 82.4276 96.931 82.6944 96.5351 82.8343C96.2826 83.3678 95.7605 83.7745 95.6342 84.0413C95.2555 84.8415 94.699 83.9275 94.4293 83.8006Z" fill="#040404"/>
<path d="M94.9384 82.0585C94.6858 82.592 94.1636 82.9987 94.0374 83.2654C93.6586 84.0657 93.1192 83.812 92.5798 83.5583C93.2283 82.8849 93.6071 82.0847 94.9384 82.0585C94.6687 81.9317 94.9384 82.0585 94.9384 82.0585Z" fill="#040404"/>
<path d="M95.8929 84.8372C96.2875 84.6971 96.4133 84.4299 96.8079 84.2899C97.2025 84.1498 97.1854 83.4884 97.597 84.0097C97.8658 84.1367 98.0087 84.531 97.8828 84.7981C97.757 85.0653 97.5053 85.5996 96.8421 85.6126C96.6991 85.2184 96.4304 85.0913 95.8929 84.8372Z" fill="#040404"/>
<path d="M78.9954 84.4978C78.489 85.5637 77.6946 85.8434 77.0442 86.5163L76.7737 86.3896C77.5507 85.4503 78.0745 85.044 78.9954 84.4978Z" fill="#040404"/>
<path d="M34.4893 93.7679C35.4093 93.2216 35.9325 92.8152 36.5822 92.1422C36.2028 92.9419 35.8233 93.7416 34.4893 93.7679Z" fill="#040404"/>
<path d="M55.4146 88.4828C55.0346 89.2822 54.5107 89.6885 53.7161 89.9682C54.3667 89.2954 54.7466 88.496 55.4146 88.4828Z" fill="#040404"/>
<path d="M31.453 61.4537C31.3275 61.7208 31.8649 61.9754 31.4707 62.1151C31.4707 62.1151 31.202 61.9878 31.0588 61.5934C31.3275 61.7208 31.3275 61.7208 31.453 61.4537Z" fill="#040404"/>
<path d="M55.4166 88.4903C55.2725 88.0968 55.5428 88.2238 55.669 87.9573C55.813 88.3508 55.813 88.3508 55.4166 88.4903Z" fill="#040404"/>
<path d="M56.4609 87.6826C56.4609 87.6826 56.2083 88.2158 56.0651 87.8226C56.1914 87.556 56.1914 87.556 56.4609 87.6826C56.5872 87.416 56.4609 87.6826 56.4609 87.6826Z" fill="#040404"/>
<path d="M37.1026 91.748C36.9762 92.014 37.2489 92.1417 37.1026 91.748C36.9762 92.014 36.9762 92.014 36.9762 92.014C36.9762 92.014 36.9762 92.014 37.1026 91.748C36.9762 92.014 37.1026 91.748 37.1026 91.748Z" fill="#040404"/>
<path d="M16.3907 38.4039C16.3907 38.4039 16.2646 38.6717 16.3907 38.4039C15.9969 38.5451 15.9969 38.5451 16.3907 38.4039C16.123 38.2773 16.123 38.2773 16.3907 38.4039Z" fill="#040404"/>
<path d="M23.6353 47.8214L23.5089 48.0874C23.5089 48.0874 23.2362 47.9597 23.6353 47.8214C23.3626 47.6937 23.6353 47.8214 23.6353 47.8214Z" fill="#040404"/>
<path d="M34.0292 66.9658L33.9023 67.2334C33.508 67.3756 33.6349 67.1079 34.0292 66.9658C33.6349 67.1079 34.0292 66.9658 34.0292 66.9658Z" fill="#040404"/>
<path d="M94.6721 81.9412C94.7982 81.6734 94.7982 81.6734 94.6721 81.9412C95.0658 81.8 94.9398 82.0679 94.6721 81.9412C94.9398 82.0679 94.6721 81.9412 94.6721 81.9412Z" fill="#040404"/>
<path d="M76.4191 46.5178L76.2924 46.786C76.0254 46.6602 76.0254 46.6602 76.4191 46.5178C76.0254 46.6602 76.0254 46.6602 76.4191 46.5178Z" fill="#040404"/>
<path d="M29.7079 58.9685C29.8495 59.363 29.8495 59.363 29.7079 58.9685C29.8495 59.363 29.5818 59.2364 29.7079 58.9685C29.5818 59.2364 29.5818 59.2364 29.7079 58.9685Z" fill="#040404"/>
<path d="M112.798 85.1513C112.53 85.0247 112.53 85.0247 112.798 85.1513C112.656 84.7568 112.656 84.7568 112.798 85.1513C112.656 84.7568 112.924 84.8835 112.798 85.1513Z" fill="#040404"/>
<path d="M11.258 82.8218C10.9891 82.6939 10.9891 82.6939 11.258 82.8218C10.9891 82.6939 11.1138 82.4274 11.258 82.8218C11.1138 82.4274 11.258 82.8218 11.258 82.8218Z" fill="#040404"/>
<path d="M89.456 65.6318L89.3291 65.8994C88.9347 66.0415 89.0616 65.7739 89.456 65.6318C89.0616 65.7739 89.0616 65.7739 89.456 65.6318Z" fill="#040404"/>
<path d="M18.8757 90.7801C18.8757 90.7801 18.7496 91.0479 18.8757 90.7801C18.4819 90.9213 18.4819 90.9213 18.8757 90.7801C18.608 90.6535 18.608 90.6535 18.8757 90.7801Z" fill="#040404"/>
<path d="M90.3353 83.4437C90.3353 83.4437 90.2106 83.7102 90.3353 83.4437C90.0663 83.3158 90.0663 83.3158 90.3353 83.4437Z" fill="#040404"/>
<path d="M21.6547 90.4924C22.0172 89.0325 23.0463 87.5592 23.4089 86.0993C23.5354 85.8326 23.5184 85.1727 24.0585 85.4259C24.5986 85.6792 24.4721 85.9459 24.3456 86.2125C23.966 87.0125 23.983 87.6724 23.6035 88.4724C22.8444 90.0724 22.7519 91.6589 22.9295 93.3721C23.0731 93.7654 23.3602 94.552 22.6935 94.5654C21.9004 94.8454 22.2799 94.0454 22.1364 93.6522C21.9758 92.5989 21.9418 91.279 20.8615 90.7724C20.5915 90.6458 20.4479 90.2525 20.3044 89.8592C19.7302 88.286 21.3749 84.8195 22.8177 83.8661C23.2142 83.7261 23.3408 83.4595 23.8809 83.7127C24.0244 84.106 23.8979 84.3727 23.7714 84.6394C22.2191 86.5193 21.7301 88.2459 21.6547 90.4924Z" fill="#040404"/>
<path d="M14.1567 75.4032C14.6651 74.3381 15.1734 73.2729 16.0978 72.7266C16.4964 72.5866 17.0222 72.1802 17.1666 72.5728C17.5827 73.0916 17.184 73.2316 16.9298 73.7642C14.9887 76.4408 14.2609 79.3563 14.0762 82.5242C14.2207 82.9167 14.2381 83.5756 13.5679 83.5893C12.8977 83.6031 12.6087 82.818 12.8629 82.2854C13.065 79.7763 13.14 77.5335 14.1567 75.4032Z" fill="#040404"/>
<path d="M9.50856 72.1632C10.5256 70.0331 11.9763 69.0805 12.8837 67.8755C13.0108 67.6092 13.2825 67.7354 13.5541 67.8617C13.8258 67.9879 13.9703 68.3804 13.8432 68.6467C13.4618 69.4454 12.9359 69.8517 12.5545 70.6505C10.8669 72.7944 9.99438 75.317 10.064 77.952C9.93686 78.2183 10.0814 78.6108 9.80973 78.4846C9.41092 78.6246 9.13925 78.4983 8.99471 78.1058C8.57851 77.5871 8.68824 76.6621 8.94251 76.1296C8.76316 74.4196 9.39883 73.0882 9.50856 72.1632Z" fill="#040404"/>
<path d="M11.1311 62.7432C11.5491 63.2611 11.4216 63.5272 10.8937 63.9334C9.45537 65.5439 8.56259 67.4063 7.54228 69.5349C7.03212 70.5991 6.79475 71.7893 6.55738 72.9795C6.42984 73.2456 6.57508 73.6376 5.90198 73.6518C5.6292 73.5258 5.48396 73.1338 5.61149 72.8677C6.05084 69.1711 7.43606 65.5863 10.3304 63.0234C10.458 62.7573 10.8583 62.6172 11.1311 62.7432Z" fill="#040404"/>
<path d="M8.68651 69.7891C9.06843 68.9905 9.0509 68.3321 9.97709 67.7858C10.3765 67.6457 10.5038 67.3796 10.6487 67.7719C10.9208 67.898 10.7935 68.1642 10.6662 68.4303C9.12101 70.9659 8.2474 73.4876 7.91807 76.2616C7.79076 76.5277 7.93559 76.92 7.26402 76.934C6.99188 76.8078 6.71974 76.6817 6.84705 76.4156C6.68469 75.3648 6.79447 74.4401 7.17638 73.6416C7.81291 72.3107 8.04999 71.1199 8.68651 69.7891Z" fill="#040404"/>
<path d="M29.4591 91.9587C28.8077 92.6316 28.5712 93.8238 27.6489 94.3702C27.1243 94.7766 26.7266 94.9166 26.7438 95.5759C26.6169 95.8424 26.4901 96.1088 26.0924 96.2488C25.8215 96.1224 25.6774 95.7295 25.8043 95.4631C26.0408 94.2709 26.4213 93.4716 26.6578 92.2794C26.9114 91.7466 27.0383 91.4801 27.292 90.9473C27.4188 90.6808 27.4188 90.6808 27.5457 90.4144C27.9434 90.2744 28.0874 90.6673 27.9606 90.9337C27.9778 91.593 28.3755 91.453 28.6292 90.9201C28.7561 90.6537 28.7388 89.9944 29.2806 90.2473C29.9665 90.893 29.9837 91.5523 29.4591 91.9587Z" fill="#040404"/>
<path d="M18.4579 80.7587C18.8569 80.6186 18.9667 79.6938 19.4929 79.2875C19.892 79.1475 20.0192 78.8812 20.1638 79.2736C20.4357 79.3998 20.3085 79.6661 20.1813 79.9323C18.8918 81.9359 17.8742 84.0657 18.0712 86.4341C17.944 86.7003 17.8168 86.9666 17.8168 86.9666C17.4178 87.1066 17.2731 86.7142 17.4003 86.448C16.9664 85.2707 17.3305 83.8134 17.5675 82.6223C17.8219 82.0898 18.0763 81.5573 18.4579 80.7587Z" fill="#040404"/>
<path d="M27.2938 88.2925C26.5311 89.8902 25.2252 91.2354 25.2774 93.2118C25.1503 93.478 25.1503 93.478 24.7516 93.6181C24.4799 93.4918 24.2083 93.3656 24.3354 93.0993C24.0291 91.6554 24.393 90.1978 25.1731 89.2589C25.4273 88.7264 26.0802 88.0538 26.6061 87.6475C26.7332 87.3812 27.259 86.9749 27.8022 87.2274C28.3454 87.4799 27.8196 87.8862 27.6925 88.1525C27.4209 88.0263 27.2938 88.2925 27.2938 88.2925Z" fill="#040404"/>
<path d="M41.3795 95.1394C41.1093 95.0128 40.9656 94.6196 41.0922 94.353C41.8688 93.4132 42.9157 92.6 43.6924 91.6602C43.819 91.3936 44.0892 91.5202 44.3595 91.6468C44.6297 91.7733 44.5031 92.0399 44.3765 92.3065C43.5999 93.2464 42.8233 94.1862 41.903 94.7328C41.6498 95.266 41.3795 95.1394 41.3795 95.1394Z" fill="#040404"/>
<path d="M61.8154 63.0574C61.8508 64.3736 61.3407 65.4378 60.958 66.236C60.3381 68.2244 59.4453 70.0868 58.5525 71.9492C58.4249 72.2153 58.1699 72.7474 57.6243 72.4955C57.0787 72.2435 57.6066 71.8374 57.4613 71.4454C58.2089 69.1909 59.2292 67.0625 59.9767 64.808C60.3594 64.0099 60.8872 63.6037 61.8154 63.0574Z" fill="#040404"/>
<path d="M59.8774 75.2445C60.515 73.9142 60.8798 72.4578 61.645 70.8614C62.0275 70.0632 62.2825 69.531 63.2105 68.9848C63.3381 68.7187 63.7383 68.5786 64.011 68.7046C64.2837 68.8306 64.1562 69.0966 64.0287 69.3627C62.5906 70.9733 62.0983 72.6957 61.4784 74.6841C61.2233 75.2163 60.9683 75.7484 60.568 75.8885C60.1678 76.0286 60.1678 76.0286 59.8951 75.9026C59.2221 75.9168 59.3496 75.6507 59.8774 75.2445Z" fill="#040404"/>
<path d="M54.9321 59.7131C54.5675 61.1697 53.803 62.7665 53.4384 64.2231C53.311 64.4893 53.3286 65.1476 52.6563 65.1616C52.1115 64.9095 52.6387 64.5033 52.4937 64.1111C52.8231 61.3379 53.8424 59.2089 54.9891 56.8138C55.1165 56.5476 55.3713 56.0154 55.7888 56.5336C56.3336 56.7857 56.2062 57.0518 55.9514 57.5841C55.6966 58.1163 55.3143 58.9147 54.9321 59.7131Z" fill="#040404"/>
<path d="M66.1316 78.5847C65.6212 79.6488 65.1107 80.7129 64.6002 81.777C64.4726 82.043 64.2174 82.575 63.6714 82.3232C63.1254 82.0714 63.6536 81.6653 63.7812 81.3992C64.4016 79.4112 65.1495 77.1571 66.5888 75.5467C66.7164 75.2807 67.0993 74.4826 67.5177 75.0004C68.0637 75.2522 67.5354 75.6584 67.2802 76.1904C66.8973 76.9885 66.5145 77.7866 66.1316 78.5847Z" fill="#040404"/>
<path d="M63.7866 78.7495C63.6596 79.0158 63.4054 79.5483 62.8624 79.2958C62.5909 79.1695 62.845 78.6369 62.7006 78.2444C63.3186 76.254 64.0637 73.9974 64.4102 71.8808C64.6644 71.3482 64.7914 71.0819 65.3345 71.3345C65.8775 71.587 65.3518 71.9933 65.4963 72.3859C65.1498 74.5025 64.4047 76.7591 63.7866 78.7495Z" fill="#040404"/>
<path d="M57.5739 67.8688C57.3193 68.4012 57.1921 68.6674 56.92 68.5412C56.6479 68.4151 56.3759 68.2889 56.5031 68.0228C56.85 65.9072 57.4688 63.9177 58.4871 61.7882C58.6144 61.522 59.141 61.1158 59.4131 61.2419C59.9572 61.4942 59.4306 61.9004 59.3033 62.1666C58.6844 64.1561 58.0655 66.1455 57.5739 67.8688Z" fill="#040404"/>
<path d="M46.3248 47.0155C45.8151 48.08 45.1781 49.4106 45.2133 50.7272C45.0859 50.9933 45.2309 51.3855 44.831 51.5256C44.4312 51.6656 44.4136 51.0073 44.541 50.7412C44.6156 48.5002 45.5075 46.6374 46.6718 44.9006C46.7992 44.6345 47.199 44.4944 47.4714 44.6204C47.7439 44.7465 47.6165 45.0126 47.4891 45.2787C46.8344 45.9511 46.5796 46.4833 46.3248 47.0155Z" fill="#040404"/>
<path d="M55.837 66.0412C55.7099 66.3075 55.5829 66.5738 55.1843 66.7139C54.9129 66.5876 54.7684 66.195 54.7684 66.195C55.1149 64.0783 55.4614 61.9616 56.3508 60.0974C56.4779 59.8311 56.6049 59.5648 56.8764 59.6911C57.4193 59.9437 57.1652 60.4763 57.0382 60.7426C56.5299 61.8078 56.2931 62.9993 56.0564 64.1908C56.0737 64.8497 56.0911 65.5086 55.837 66.0412Z" fill="#040404"/>
<path d="M50.3969 54.8825C50.0145 55.6809 49.6322 56.4792 48.8498 57.4176C48.7224 57.6837 48.5949 57.9498 48.3224 57.8238C48.0499 57.6977 48.1773 57.4316 48.3048 57.1655C48.7969 55.4429 49.8342 53.9723 50.1989 52.5157C50.3263 52.2496 50.5989 52.3756 50.7263 52.1095C50.9989 52.2356 51.144 52.6277 51.0165 52.8938C51.0341 53.552 50.3792 54.2243 50.3969 54.8825Z" fill="#040404"/>
<path d="M47.9113 49.1126C48.0386 48.8465 48.4381 48.7064 48.5655 48.4402L48.965 48.3002C49.2373 48.4263 49.1099 48.6924 49.1099 48.6924C48.4908 50.6817 47.7268 52.2786 47.1077 54.2679C46.9803 54.534 46.9803 54.534 46.5808 54.6741C46.3086 54.548 46.0364 54.4219 46.1637 54.1557C46.2735 53.2311 46.6555 52.4326 46.6379 51.7742C47.1473 50.7096 47.8015 50.0372 47.9113 49.1126Z" fill="#040404"/>
<path d="M39.9769 45.2571C40.341 43.7997 40.8498 42.7347 41.4857 41.4036C41.6129 41.1373 41.8673 40.6049 42.2663 40.4648C42.6653 40.3248 42.6653 40.3248 42.9371 40.451C43.2089 40.5772 43.0817 40.8434 42.9545 41.1097C42.3186 42.4408 41.5555 44.0382 41.1913 45.4956C40.538 46.1681 40.2487 45.3833 39.9769 45.2571Z" fill="#040404"/>
<path d="M68.5382 81.7212C67.7564 82.6597 67.2469 83.7242 66.7374 84.7888C66.61 85.0549 66.3552 85.5872 66.0829 85.4611C65.5383 85.209 65.6657 84.9429 65.9204 84.4106C66.4299 83.346 67.0668 82.0153 67.5763 80.9508C67.831 80.4185 68.0857 79.8862 68.6304 80.1384C69.32 80.7827 68.7929 81.1889 68.5382 81.7212Z" fill="#040404"/>
<path d="M42.8441 44.0299C43.2257 43.2312 43.4801 42.6988 44.1335 42.0263C44.5325 41.8862 44.6597 41.62 44.8044 42.0124C45.0762 42.1386 44.949 42.4048 44.8218 42.6711C43.914 43.876 43.0062 45.081 43.1857 46.7907C43.0585 47.057 42.9313 47.3232 42.6595 47.197C42.2604 47.337 42.1158 46.9446 42.243 46.6784C41.9537 45.8935 42.4625 44.8286 42.8441 44.0299Z" fill="#040404"/>
<path d="M52.4068 57.5011C52.0245 58.2993 51.7696 58.8315 51.5147 59.3636C51.3873 59.6297 51.2599 59.8958 50.9871 59.7697C50.7144 59.6435 50.8418 59.3774 50.9692 59.1114C51.2062 57.9209 51.8434 56.5906 52.4805 55.2602C52.6079 54.9941 52.7354 54.728 53.0081 54.8542C53.2809 54.9803 53.1535 55.2464 53.2988 55.6386C53.3167 56.2969 52.6616 56.9689 52.4068 57.5011Z" fill="#040404"/>
<path d="M65.4094 52.3394C66.1738 50.7426 66.6658 49.0198 67.5576 47.1569C67.685 46.8908 67.9398 46.3585 68.4846 46.6106C69.0294 46.8627 68.7746 47.395 68.6472 47.6611C68.0102 48.9918 67.6456 50.4484 66.6088 51.9192C66.354 52.4514 65.9542 52.5915 65.4094 52.3394Z" fill="#040404"/>
<path d="M69.1143 52.1474C68.8599 52.6799 68.4783 53.4786 68.2239 54.011C68.0967 54.2772 67.9695 54.5435 67.4258 54.2911C67.1539 54.1649 67.2811 53.8987 67.1365 53.5063C67.7725 52.1751 68.1366 50.7178 68.7727 49.3867C68.8999 49.1205 69.1543 48.588 69.698 48.8404C69.9699 48.9666 69.9873 49.6252 69.8601 49.8914C69.7504 50.8163 69.496 51.3488 69.1143 52.1474Z" fill="#040404"/>
<path d="M84.624 79.0226C84.4967 79.2887 84.3694 79.5548 84.2421 79.8209C84.1148 80.0871 83.8602 80.6193 83.4426 80.1008C82.8978 79.8484 83.4248 79.4423 83.5522 79.1762C84.0614 78.1117 84.2982 76.921 84.6802 76.1226C84.9348 75.5904 85.1894 75.0581 85.4618 75.1843C86.0067 75.4367 85.752 75.969 85.4974 76.5012C85.1155 77.2996 84.7336 78.098 84.624 79.0226Z" fill="#040404"/>
<path d="M65.1874 44.6668C64.807 45.4661 64.4265 46.2655 63.7753 46.9384C63.6485 47.2048 63.5217 47.4713 62.98 47.2184C62.7092 47.0919 62.836 46.8255 62.692 46.4326C63.1993 45.3668 63.3089 44.441 63.8161 43.3752C64.0698 42.8423 64.4674 42.7023 64.7382 42.8287C65.2798 43.0816 65.0262 43.6145 64.7726 44.1474C65.3142 44.4003 65.1874 44.6668 65.1874 44.6668Z" fill="#040404"/>
<path d="M82.8259 84.7319C83.4635 83.4016 84.101 82.0714 84.7385 80.7412C84.866 80.4752 84.9935 80.2091 85.2665 80.3352C85.5394 80.4613 85.6849 80.8534 85.5574 81.1194C84.9198 82.4497 84.4098 83.5138 83.4994 84.718C83.6448 85.1101 83.2264 84.5919 82.8259 84.7319Z" fill="#040404"/>
<path d="M76.5907 69.8887C76.9546 68.4311 77.4457 66.7072 77.8096 65.2495C77.9367 64.9832 78.0638 64.717 78.4625 64.5769C78.7341 64.7032 78.8786 65.0957 78.7515 65.362C78.3876 66.8197 78.0236 68.2773 77.3881 69.6087C77.4055 70.2675 76.8623 70.015 76.5907 69.8887Z" fill="#040404"/>
<path d="M76.0167 65.6631C75.8896 65.9294 75.7624 66.1957 75.3637 66.3357C75.2366 66.602 74.965 66.4757 74.965 66.4757C74.6935 66.3494 74.6935 66.3494 74.8206 66.0832C75.1845 64.6255 75.6929 63.5604 76.0568 62.1028C76.184 61.8365 76.7098 61.4302 76.9814 61.5565C77.5245 61.809 76.9987 62.2153 76.8716 62.4815C76.6348 63.6729 76.5251 64.598 76.0167 65.6631Z" fill="#040404"/>
<path d="M81.0097 68.7726C81.5512 69.0255 81.6952 69.4184 81.8392 69.8114C81.476 71.2701 80.9688 72.336 80.8764 73.9212C80.7496 74.1877 80.8935 74.5806 80.2252 74.5941C79.9544 74.4677 79.8105 74.0747 79.9373 73.8083C79.7589 72.0966 80.5197 70.4978 81.0097 68.7726Z" fill="#040404"/>
<path d="M79.2698 66.2859C79.8114 66.5388 80.2263 67.0581 79.9726 67.591C79.7362 68.7833 79.3558 69.5826 79.1193 70.7749C78.9925 71.0414 78.8657 71.3078 78.5949 71.1813C78.0533 70.9284 78.4509 70.7884 78.3069 70.3955C78.5433 69.2033 78.9066 67.7446 79.2698 66.2859Z" fill="#040404"/>
<path d="M102.009 85.8099C101.882 86.0761 101.899 86.7345 101.355 86.4823C100.81 86.2301 101.065 85.6978 101.192 85.4317C101.412 83.5827 102.176 81.9858 103.068 80.1228C103.195 79.8566 103.45 79.3243 103.994 79.5765C104.539 79.8287 104.012 80.2349 103.884 80.501C103.393 82.224 102.901 83.9469 102.009 85.8099Z" fill="#040404"/>
<path d="M99.1504 78.8454C98.6243 79.2517 98.6592 80.5691 97.8439 80.1904C97.0286 79.8118 97.809 78.873 98.0634 78.3405C98.572 77.2755 98.8089 76.0843 99.0458 74.8931C99.173 74.6269 99.3002 74.3606 99.4273 74.0944C99.5545 73.8281 99.9534 73.6881 100.225 73.8143C100.497 73.9405 100.37 74.2068 100.243 74.473C100.006 75.6642 99.9134 77.2479 99.1504 78.8454Z" fill="#040404"/>
<path d="M85.72 61.1979C85.8123 59.6142 86.8471 58.143 87.2111 56.6856C87.3383 56.4193 87.6101 56.5455 87.6101 56.5455C87.8819 56.6717 88.1536 56.7979 88.0264 57.0642C87.6624 58.5216 87.2983 59.979 86.3907 61.184C86.2635 61.4503 85.9917 61.3241 85.72 61.1979Z" fill="#040404"/>
</g>
</svg>
